<svg width="1518" height="2088" viewBox="0 0 1518 2088" fill="none" xmlns="http://www.w3.org/2000/svg">
<ellipse cx="759" cy="1275.5" rx="759" ry="766.5" fill="#202020"/>
<path d="M446.002 486.792L446.002 550.502L445.002 556.002L444.002 562.002L442.502 569.002L439.502 576.003L435.002 581.002L429.002 585.503L817 674L817 130.5L543.5 130.5L499 130.5L489 132.5L480 136L475 141.5L470 148.501L467.5 157L467.5 169.5L467.5 183L468.5 197.5L470 208L472.5 224.5L475 236.5L478 250.5L480 262L483 282L486 294L488.5 303L490 312.5L488.5 318L437 318L431.5 319.5L425 322.5L418.5 325.5L413 329.5L407.5 333.5L402.5 337L397.5 341L393 345L390 348.5L386.5 352.5L383 358.5L380 364.5L376.5 371.5L374 378.5L373 386L373 410.999L374 415.499L375 420.499L376.5 424.498L378.5 429.498L381 434.998L383.5 439.998L387 445.999L390.5 451.499L394 456.499L397.5 459.5L402.001 464.5L406.001 468L411.001 472.001L419.001 476.501L427.501 480.002L437.001 483.002L446.002 486.792Z" fill="#202020"/>
<path d="M1074.89 486.82L1074.89 550.531L1075.89 556.031L1076.89 562.031L1078.39 569.031L1081.39 576.031L1085.89 581.031L1091.89 585.531L703.896 674.028L703.896 130.528L977.396 130.528L1021.9 130.528L1031.9 132.528L1040.9 136.028L1045.9 141.528L1050.9 148.529L1053.4 157.029L1053.4 169.528L1053.4 183.028L1052.4 197.528L1050.9 208.028L1048.4 224.528L1045.9 236.528L1042.9 250.528L1040.9 262.028L1037.9 282.028L1034.9 294.028L1032.4 303.028L1030.9 312.528L1032.4 318.028L1083.9 318.028L1089.4 319.528L1095.9 322.528L1102.4 325.528L1107.9 329.528L1113.4 333.528L1118.4 337.028L1123.4 341.028L1127.9 345.028L1130.9 348.528L1134.4 352.528L1137.9 358.528L1140.9 364.528L1144.4 371.528L1146.9 378.528L1147.9 386.028L1147.9 411.028L1146.9 415.527L1145.9 420.527L1144.4 424.527L1142.4 429.526L1139.9 435.026L1137.4 440.026L1133.9 446.027L1130.4 451.527L1126.9 456.527L1123.4 459.528L1118.9 464.529L1114.9 468.029L1109.9 472.029L1101.9 476.53L1093.4 480.03L1083.89 483.03L1074.89 486.82Z" fill="#202020"/>
<ellipse cx="758.5" cy="1280.5" rx="712.5" ry="708.5" fill="#AFCDD1"/>
<path d="M504.5 487L504.5 561.5L501.5 577L497 587L491.5 597.5L485 608L478.5 617L474.5 622.5L469.5 627.5L463.5 631.5L457.5 635L448 640L430.5 651.5L709 662.5L1090 656L1054.5 630.5L1038 611L1028.5 585.5L1024 558.5L1024 487L816 487L504.5 487Z" fill="#AFCDD1"/>
<path d="M570.5 185.5L521.5 185.5L541.5 319.5L982 319.5L1003.5 185.5L570.5 185.5Z" fill="#E9B57B"/>
<path d="M1074 429.502L447.97 429.502L442.5 428.5L434.5 424L428.5 417L424 408L424 390.5L430 381.5L436.5 375L447.97 369.5L1074 369.499L1080.5 372.999L1089 379.501L1093.5 386.501L1097 395.001L1097 408.001L1095 415.001L1087 423.501L1074 429.502Z" fill="#AFCDD1"/>
<path d="M216.013 1631.49L147.065 1631.49L126.5 1633.5L122.5 1656.5L145.5 1694.5L195.5 1773.5L286.508 1855.46L446.507 1937.5L670.507 2016L890 2016L1091.5 1937.5L1277.5 1809L1395.5 1653.5L1369.5 1636L1362 1639.5L1354 1636L1343 1633.5L1330.5 1628L1317 1623.5L1303.5 1618.5L1288 1614.5L1273.5 1611L1263.5 1608.5L1252.5 1605.5L1244.5 1604L1236 1604L1234.5 1599L1239 1591.5L1246 1582L1254 1570L1263.5 1557L1270.5 1544.5L1278.5 1530.5L1286.5 1514.5L1292 1501L1298.5 1487L1304 1472L1309 1456.5L1312.5 1447L1315 1438.5L1315 1426.5L1315 1416.5L1312.5 1409L1304 1409L1295 1410.5L1283.5 1414L1270.5 1421L1260.5 1426.5L1250.5 1433.5L1242.5 1441L1235.5 1449L1227.5 1457.5L1220 1466.5L1214 1476L1210 1483L1208 1488.5L1205 1493.5L1200 1493.5L1197 1488.5L1196.04 1483L1194.5 1475L1192.5 1463.5L1188.5 1452.5L1182.5 1438.5L1174 1426.5L1164 1416.5L1154 1405.5L1144.5 1397L1137 1391L1129 1385.5L1121.5 1383L1115 1383L1107.5 1385.5L1103 1389.5L1103 1402L1104.5 1414L1106.5 1424.5L1110 1436L1113 1449L1116.5 1463.5L1121.5 1479L1126.5 1493.5L1131.5 1511L1136.5 1526L1141 1539.5L1144.5 1550L1150 1561L1153.5 1568.5L1153.5 1576L1149 1578L1141 1576L1129.5 1572.5L1117.5 1570L1105.5 1566.5L1091.5 1564L1078.5 1563L1068 1560L1059.5 1556.5L1052 1550L1043.5 1543L1029.5 1532L1014.5 1521.5L1001.5 1513L989 1505L977 1500.5L964 1495.5L956.5 1490L956.5 1483.5L960.5 1474.5L970 1460.5L982.5 1446L996.5 1431L1012 1414.5L1027.5 1399.5L1037.5 1389.5L1049 1379.5L1058 1370.5L1070.5 1359.5L1080.5 1350.5L1089.5 1344L1098 1339L1106 1334.5L1114 1330L1121 1325.5L1129.5 1320.5L1137.5 1315L1143.5 1310L1148.5 1305L1152.5 1301L1156.5 1296L1157.5 1291L1153.5 1286.5L1144.5 1281.5L1134.5 1277.5L1126.5 1275L1091.5 1275L1079.5 1276L1067.5 1278.5L1053.5 1283L1042 1288L1030.5 1294L1018 1301.5L1006.5 1309L996.5 1317L989 1324.5L982.5 1331.5L976.5 1339L971.5 1346L967 1352.5L964 1356.5L962 1360L958 1360L956 1355.5L955 1346L955 1335L954 1323L951 1310.5L947.5 1297L943.5 1286L939.5 1274L933.5 1263.5L927 1254.5L920 1245.5L913 1238.5L904.5 1229.5L894.5 1222L884.5 1216L876.5 1211L868.5 1206.5L861.5 1202L854 1199L848 1197L843.5 1197L838.5 1199L837 1203.5L837 1211L839.326 1222L841.5 1232L844 1243L846 1252.5L848.5 1263.5L851 1274L855 1284.5L858.5 1294.5L863 1304.5L867.5 1315L872.5 1326L879 1339L885 1351.5L890.5 1362L895 1371.5L899.5 1380L904 1390.5L907 1402.5L908.5 1413L909.5 1423.5L910.5 1434.5L912 1444.5L913.5 1454.5L914.5 1462.5L912 1467.5L907 1467.5L892 1461.5L874.5 1456L854.5 1452L834.5 1448.5L815 1446L774 1446L767.5 1446L765 1442L764 1434.5L763 1422L761 1406.5L760 1388L758.5 1372.5L757.5 1359L756.5 1244.5L756.5 1221L757.5 1199L759.5 1176.5L760.5 1159L761 1142L762.5 1126L766.5 1110L770 1096L773 1082.5L775.5 1068L777.5 1056L779 1045.5L781.5 1036.5L784.5 1026.5L787 1015.5L789.5 1007L792 998.999L793.5 992.499L796 985.999L798 979.499L800 973.499L801.5 967.999L802.5 963.499L803.5 958.999L803.5 954.999L806 953.499L808.5 953.499L810 957.499L812 965.999L815 978.499L819 990.999L823.5 1002L829 1011.5L835.5 1021L844 1031.5L854.5 1041L865 1048.5L878 1055.5L891.5 1061L906 1066L919.5 1069.5L931.5 1071.5L939.5 1072.5L946 1074L951.5 1075L955.5 1076L974 1076L979 1074.5L982.5 1071.5L984.5 1066L986 1059.5L987.5 1051.5L990 1042.5L991 1033.5L993 1024.5L993 1006.5L993 994.499L991 985.999L989.5 977.499L987 967.999L983.5 959.499L979 948.999L974 940.499L968.5 931.999L963.5 925.499L958 918.499L951 912.499L944 907.499L937.5 903.999L930 899.999L920 895.999L909.5 892.999L900.5 890.499L893.5 888.999L886 887.499L878 886.499L870.5 885.999L864 885.999L856.5 885.999L851 885.999L845.5 886.499L840 887.999L834.5 888.999L829.5 889.999L825.5 888.499L825 883.999L827.5 877.999L829.5 872.499L831.5 865.999L834 859.999L836 853.999L837 847.999L838.5 842.999L842.5 839.999L856 840.999L860.5 842.999L889 842.999L897 842.999L905 841.499L911 839.999L917.5 837.999L925 834.499L932.5 830.999L939 826.999L946.5 821.999L954 815.999L959.5 810.999L965 804.499L969.5 796.999L974 789.999L978 782.999L982.5 775.499L985.5 767.999L989 760.999L991.5 752.999L993.5 744.999L995 737.499L995.5 730.999L995.5 725.999L994.5 721.999L991.5 718.499L984.5 714.999L977.5 711.999L969 709.499L962 707.499L955 706.999L947.5 707.499L940 708.499L931.5 709.999L923.5 711.499L916 712.999L909 714.999L901.5 716.999L893 720.999L887.5 724.499L881.5 728.499L875 733.499L870 737.499L864 741.999L860 745.499L855.5 749.499L852.5 753.499L849.5 758.499L847.5 761.999L846 764.999L843 765.999L841 764.999L840.5 762.999L839 757.999L838.5 750.999L837.5 740.499L837 731.499L834.5 722.999L831.5 714.499L826 703.499L820 693.999L813.5 685.999L804.5 674.999L794.5 667.499L786 660.499L777 655.499L769.499 650.499L763.5 646.999L759.5 644.499L756.5 641.999L751.5 642L748 643L744.5 646L742.5 649.5L740.501 655.498L739.001 661.498L737.502 666.499L737.502 690.999L737.502 733.999L738.503 739.499L739.503 746.499L741.003 752.499L743.503 758.498L746.003 764.499L749.003 770.999L753.003 777.499L757.503 784.999L761.503 790.999L768.003 798.999L777.003 807.499L785.003 813.499L792.503 818.499L800.003 821.499L804.503 824.5L805.003 828.5L803.503 837L801.503 847L799.503 855L797.503 864L795.503 874.499L794.003 880.499L793.003 887.499L788.003 887.499L781.503 883L771.503 876.499L762.003 872.499L750.503 867.5L736.503 865.5L700.003 865.499L690.503 867.499L685.003 874.5L683.503 882.999L683.503 897.5L687.503 912.5L693.003 927L700.003 938.501L707.503 949.501L719.003 956L727.003 961.5L734.503 965.5L743.503 968.5L752.503 971L762.003 972L762.003 980.501L760.003 986.5L757.003 993.5L755.003 1001L752.503 1010L750.503 1018.5L749.003 1028L747.503 1036L746.003 1044L743.003 1053L741.503 1060L739.503 1066.5L738.003 1074.5L736.503 1081L735.003 1088.5L733.003 1095.5L732.003 1103L732.003 1109.5L728.503 1113.5L725.003 1113.5L723.503 1108L721.003 1097L717.503 1084.5L714.503 1075.5L711.503 1065.5L707.503 1053L702.503 1038.5L697.003 1026.5L690.503 1013L685.003 1003L675.503 989L662.503 972L646.503 953.5L633.003 938.501L621.503 927L608.325 914.501L595.182 906L588.503 900.5L586.003 896.5L588.503 892.5L593.503 889L600.503 883L607.503 876.499L613.503 870.499L621.503 863.5L629.003 853.999L636.503 843.5L643.003 832L645.503 821.5L648.003 810.999L648.003 798.999L647.003 787.499L645.503 778.499L644.003 769.499L642.003 760.999L639.503 752.999L633.503 748.5L626.503 747.499L617.503 748.499L610.503 749.999L601.503 752.999L591.003 757.999L579.503 763.999L566.003 773L557.003 781.499L550.503 788.499L543.003 796.499L537.503 805.499L534.003 813L529.503 824.499L529.503 848.999L531.003 860.499L534.003 868.5L538.503 872L543.003 874.5L543.003 879L536.503 880.5L523.004 880.5L509.503 880.5L495.504 880.5L479.504 884L462.004 889L447.504 894L434.504 902L420.004 912.5L408.004 923.5L399.004 935L393.504 943.001L388.504 950.501L384.004 960.501L380.004 971.501L376.004 981.501L374.504 989.001L372.504 997.501L371.004 1003L371.003 1011.5L372.504 1017L380.004 1022.5L388.504 1025.5L399.004 1027.5L441.004 1027.5L453.503 1027.5L465.003 1024L477.003 1020L488.004 1015L501.003 1007L513.503 998.501L521.003 990.999L529.003 982.501L534.503 974.001L539.503 966.001L546.003 957.001L551.503 949.501L553.003 941.501L553.003 935.501L555.503 930.501L560.003 930.501L566.504 933.001L573.004 938.501L579.504 944.501L586.504 951.001L594.004 958.501L601.504 967.001L608.004 974.001L616.503 980.501L622.503 986.5L625.503 990.999L624.504 994.999L617.504 995.999L599.004 997.499L583.004 1001.5L566.504 1006.5L551.004 1012L537.004 1018.5L523.504 1027.5L510.504 1038.5L498.504 1050.5L488.004 1064.5L479.504 1082L474.504 1095L469.504 1108.5L466.004 1124L464.004 1135L464.004 1165.5L464.004 1175L466.004 1185.5L471.504 1190L488.004 1190L505.504 1190L518.504 1188L532.004 1185.5L547.004 1181L561.504 1177.5L575.504 1172L589.004 1165.5L605.004 1155.5L617.504 1144.5L627.504 1135L637.004 1124L644.004 1114.5L649.004 1106.5L652.504 1098L655.004 1090L657.004 1082L658.004 1074.5L657.004 1066.5L656.004 1060L656.004 1056L659.004 1053L663.504 1053L667.004 1056L671.504 1064.5L677.504 1074.5L682.004 1085.5L686.505 1098L689.505 1110.5L692.005 1121L694.005 1131.5L696.005 1140L698.005 1151L699.505 1162L701.006 1172L702.506 1183L704.006 1192.5L705.006 1202L705.006 1246L704.007 1289.5L704.007 1325L701.007 1354L700.007 1377L698.507 1407L698.507 1443L698.007 1448L695.007 1452L689.007 1454L680.007 1457L670.507 1460L660.007 1464L647.507 1467.5L634.507 1471L624.007 1474L615.507 1477L602.507 1482L592.007 1487L581.007 1492.5L570.007 1498L562.057 1501.5L553.507 1506L544.007 1510.5L536.007 1514.5L529.007 1518.5L524.007 1522L520.007 1523.5L517.507 1523.5L516.507 1520.5L518.507 1517.5L524.507 1510.5L530.007 1502.5L535.507 1494.5L540.007 1487L545.007 1479L550.007 1471L555.007 1461.5L559.507 1453.5L567.507 1440.5L572.507 1429.5L577.007 1420.5L582.507 1411.5L586.007 1404L591.507 1394.5L595.507 1385L599.007 1376.5L602.507 1368.5L605.507 1361.5L608.507 1352.5L611.507 1343.5L615.507 1334L618.007 1328L620.507 1322.5L621.507 1318L623.507 1313.5L623.507 1304L622.007 1301L619.507 1299.5L603.507 1299.5L595.006 1299.5L585.507 1301L576.506 1304L567.007 1307L557.507 1311.5L546.007 1318L536.007 1324L525.007 1332L515.007 1341L506.007 1349L498.007 1357.5L491.507 1366.5L486.007 1375L480.507 1383L477.007 1390L472.507 1398.5L467.507 1409L464.507 1417.5L462.007 1425.5L460.007 1430.5L460.007 1441.5L459.007 1443L455.507 1443L453.507 1441.5L452.507 1436L452.007 1432.5L450.007 1424.5L446.507 1414.5L443.507 1407L440.507 1399.5L436.007 1391L429.007 1381L423.007 1371L415.007 1359L404.007 1347L395.007 1338.5L385.507 1330L376.007 1323L361.507 1313.5L348.507 1307L339.007 1302L332.007 1299L324.007 1296L314.007 1292.5L304.507 1290L296.507 1287.5L282.007 1286L275.507 1284L269.507 1282.5L264.007 1281L236.506 1281L228.507 1281.5L221.506 1282.5L215.007 1284L212.007 1287.5L212.007 1298.5L214.007 1304.5L216.507 1311.5L220.008 1318L224.507 1326L233.007 1338.5L243.007 1349.5L254.507 1363.5L264.007 1376L271.772 1384.5L277.508 1391L282.508 1396.5L286.508 1400.5L291.008 1405.5L295.508 1410.5L299.508 1415.5L303.509 1420.5L307.509 1425.5L312.509 1430.5L318.509 1437L323.509 1442.5L326.509 1446L331.009 1451.49L336.51 1457.5L342.51 1464L347.509 1471.5L353.009 1478.49L356.009 1482.5L358.509 1486.5L362.509 1493L366.009 1498L369.509 1502.99L371.009 1505L371.509 1507.5L370.009 1509.5L368.009 1510L364.509 1507.5L355.009 1501L342.009 1492.99L331.009 1486.5L314.509 1482L300.509 1480.5L276.009 1480.5L261.509 1482L246.509 1484.5L230.509 1488.5L216.013 1492.99L202.012 1498.49L190.512 1503.99L181.012 1509.99L172.511 1514.99L169.511 1520.49L172.512 1527.99L181.012 1537.49L190.512 1546.49L202.012 1554.49L214.012 1558.99L228.512 1565.99L243.013 1570.99L258.012 1576.99L274.512 1582.49L289.012 1587.49L303.512 1591.99L319.512 1595.49L336.512 1599.99L324.012 1605.49L296.512 1614.49L265.512 1623.49L243.013 1628.49L216.013 1631.49Z" fill="#202020"/>
<path d="M298.765 1564.5L266.999 1556L252 1551.5L245.5 1548.5L242 1547L240.234 1543.56L242 1540.5L246 1538.5L252 1536.5L264.5 1533.5L286.5 1533.5L302.5 1537L321.5 1543.56L343 1554.5L358 1564.5L367.5 1573.5L373.5 1579.5L373.5 1584L369 1585.5L359.5 1584L347 1579.5L325.5 1573.5L298.765 1564.5Z" fill="#798F44"/>
<path d="M529.316 1449.21L511.275 1482.66L502.148 1498.24L496.878 1504.5L494.185 1507.92L489.465 1508.41L486.048 1504.91L484.477 1499.28L483.371 1491.29L482.527 1475.18L487.652 1449.28L495.76 1432.07L508.398 1412.74L527.102 1392.5L543.116 1379.48L556.594 1372.46L565.504 1368.18L571.137 1370.26L571.967 1376.26L567.876 1386.75L559.331 1399.38L546.809 1421.9L529.316 1449.21Z" fill="#798F44"/>
<path d="M1019.64 1383.79L997.485 1405.81L986.591 1415.85L980.933 1419.42L977.99 1421.42L974.109 1420.43L972.19 1416.58L972.239 1411.52L973.206 1404.67L976.26 1391.28L986.348 1371.64L996.808 1359.96L1011.37 1347.89L1031 1336.85L1046.8 1330.92L1059.19 1329.14L1067.29 1328.26L1071.31 1331.61L1070.58 1336.75L1064.89 1344.11L1055.14 1351.91L1039.93 1366.63L1019.64 1383.79Z" fill="#798F44"/>
<path d="M1152.53 1487.38L1144.5 1470.11L1140.79 1461.79L1139.36 1457.81L1138.58 1455.71L1138.66 1453.72L1139.72 1453.45L1141.28 1454.55L1143.43 1456.55L1147.71 1461.14L1154.31 1471.05L1158.5 1479.47L1163.05 1490.32L1167.57 1503.82L1170.31 1514.06L1171.58 1521.48L1172.32 1526.27L1171.53 1527.84L1169.91 1526.34L1167.33 1521.54L1164.37 1514.34L1158.97 1502.56L1152.53 1487.38Z" fill="#798F44"/>
<path d="M895.96 1311.63L885.803 1293.2L881.18 1284.29L879.55 1279.97L878.632 1277.7L879.125 1275.39L880.947 1274.88L883.32 1275.86L886.523 1277.78L892.781 1282.27L901.912 1292.48L907.307 1301.42L912.858 1313.08L917.885 1327.8L920.548 1339.1L921.286 1347.41L921.639 1352.8L920.036 1354.75L917.634 1353.32L914.225 1348.26L910.639 1340.51L903.852 1327.93L895.96 1311.63Z" fill="#798F44"/>
<path d="M1240.32 1547.5L1227.14 1562L1218.44 1571.26L1214.7 1576.21L1212.77 1578.89L1209.7 1579.9L1207.68 1578.07L1206.97 1574.54L1206.69 1569.37L1207.02 1558.75L1211.74 1540.73L1217.92 1528.06L1227.14 1513.32L1240.32 1497.08L1251.38 1486.05L1260.47 1479.4L1266.46 1475.24L1271 1474.5L1274.5 1477L1275.5 1481L1275.5 1486.05L1273 1494.5L1269.5 1504L1264 1514.5L1257 1527L1249.5 1538L1240.32 1547.5Z" fill="#798F44"/>
<path d="M502 1150.5L502 1160L504.5 1164.5L516.5 1162.5L529.5 1160L549.5 1153.5L564.5 1147.5L581 1138.5L593.5 1129L604.5 1119.5L614.5 1109.5L623 1095.5L627.5 1083.5L630.5 1072.5L632.5 1060.5L632.5 1051L623 1049.5L608 1049.5L593.5 1052L579.5 1056L560.5 1062.5L545.5 1071L532.5 1083.5L520.5 1099.5L512.5 1114L506 1131.5L502 1150.5Z" fill="#798F44"/>
<path d="M413.06 996.585L412.413 1003.96L414.047 1007.62L423.495 1006.88L433.752 1005.82L449.714 1002.14L461.761 998.496L475.177 992.63L485.523 986.105L494.705 979.478L503.145 972.396L510.694 962.107L515.002 953.099L518.078 944.765L520.447 935.587L521.093 928.214L513.824 926.406L502.184 925.388L490.763 926.345L479.627 928.5L464.442 932.256L452.224 937.836L441.286 946.655L430.885 958.259L423.691 968.97L417.457 982.111L413.06 996.585Z" fill="#798F44"/>
<path d="M566.716 867.159L568.259 872.317L570.329 874.342L576.435 871.247L582.996 867.714L592.659 860.836L599.723 855.068L607.104 847.419L612.26 840.169L616.612 833.169L620.347 826.066L622.629 817.041L623.092 809.773L622.913 803.298L622.036 796.448L620.493 791.289L615.159 792.065L607.12 794.576L599.756 798.36L592.903 802.876L583.776 809.585L577.118 816.712L572.181 825.675L568.349 836.371L566.416 845.583L565.775 856.173L566.716 867.159Z" fill="#798F44"/>
<path d="M861.141 812.426L860.42 817.664L861.461 820.343L868.253 820.193L875.635 819.847L887.195 817.851L895.95 815.734L905.763 812.082L913.4 807.837L920.208 803.473L926.5 798.753L932.266 791.709L935.667 785.451L938.162 779.624L940.179 773.167L940.901 767.93L935.758 766.349L927.459 765.158L919.246 765.385L911.196 766.479L900.19 768.554L891.245 772.05L883.103 777.909L875.249 785.778L869.722 793.137L864.797 802.269L861.141 812.426Z" fill="#798F44"/>
<path d="M769.058 947.53L772.648 946.435L774.085 944.938L772.066 940.471L769.753 935.67L765.191 928.59L761.344 923.41L756.206 917.988L751.3 914.19L746.552 910.979L741.72 908.217L735.535 906.503L730.526 906.125L726.054 906.219L721.309 906.819L717.719 907.914L718.152 911.806L719.732 917.678L722.203 923.066L725.189 928.085L729.645 934.773L734.437 939.665L740.529 943.314L747.839 946.167L754.16 947.627L761.457 948.154L769.058 947.53Z" fill="#798F44"/>
<path d="M799.163 790.836L804.015 791.983L806.653 791.233L807.259 784.784L807.746 777.758L807.139 766.628L806.109 758.145L803.751 748.523L800.595 740.91L797.235 734.074L793.484 727.694L787.487 721.607L781.969 717.831L776.758 714.951L770.901 712.468L766.049 711.321L763.995 716.054L761.96 723.813L761.27 731.615L761.413 739.34L762.156 749.953L764.462 758.738L769.083 766.971L775.626 775.11L781.946 780.999L790.002 786.474L799.163 790.836Z" fill="#798F44"/>
<path d="M951.988 1045.43L960.307 1042.03L963.736 1037.71L959.532 1025.42L954.685 1012.22L944.905 992.865L936.585 978.75L925.331 964.081L914.457 953.927L903.89 945.398L893.089 938.133L879.092 933.922L867.665 933.333L857.419 934.013L846.502 936.133L838.183 939.529L838.812 950.362L841.878 966.622L847.031 981.446L853.395 995.192L862.971 1013.46L873.48 1026.69L887.083 1036.31L903.547 1043.6L917.879 1047.09L934.532 1047.88L951.988 1045.43Z" fill="#798F44"/>
<path d="M268.511 1325.27C287.356 1309.17 427.646 1380.52 414.664 1481C363.991 1460.55 281.493 1355.29 268.511 1325.27Z" fill="#798F44"/>
</svg>

